<svg xmlns="http://www.w3.org/2000/svg" width="52" height="33">
    <path fill-rule="evenodd" fill="#646464" d="M50.119.981H1.879A1.881 1.881 0 0 0 0 2.863v28.246c0 1.037.842 1.881 1.879 1.881h48.24c1.039 0 1.88-.844 1.88-1.881V2.863a1.88 1.88 0 0 0-1.88-1.882zM41.814 8.68h2.936v3.22h-2.936V8.68zm0 3.045h2.936v2.941h-2.936v-2.941zm0 3.654h2.936v2.941h-2.936v-2.941zM38.6 8.68h2.399v3.22H38.6V8.68zm0 3.045h2.399v2.941H38.6v-2.941zm-3.829 17.5H31.52c.83-.292.876-.974.876-1.77h-6.111c3.125-1.913 5.172-5.054 5.172-8.611H7.21c0 3.557 2.46 6.7 4.981 8.611H6.82c0 .796-.377 1.478.134 1.77H3.758V4.746h31.013v24.479zM38.6 15.379h2.399v2.941H38.6v-2.941zm4.604 12.878c-1.774 0-3.212-1.44-3.212-2.837 0-2.155 1.438-3.595 3.212-3.595 1.772 0 3.209 1.44 3.209 3.595 0 1.397-1.437 2.837-3.209 2.837zm5.297-9.937h-2.936v-2.941h2.936v2.941zm0-3.654h-2.936v-2.941h2.936v2.941zm0-2.766h-2.936V8.68h2.936v3.22z"/>
</svg>
