<svg xmlns="http://www.w3.org/2000/svg" width="25" height="24">
    <path fill-rule="evenodd" fill="#1D7A8C" d="M20.335 22.153H1.86V3.691h13.627l1.153-1.846H1.86c-1.019 0-1.74.827-1.74 1.846v18.462c0 1.018.721 1.846 1.74 1.846h18.475c1.02 0 1.848-.828 1.848-1.846V9.963l-1.848 2.959v9.231zM23.446.21c-.22.46-.466-.21-.707-.21-.421 0-.834.205-1.083.584L11.613 15.62l-3.886-4.989a1.294 1.294 0 0 0-1.828.07c-.486.524-.453 1.729.072 1.826l4.67 5.326.113.13.118.135.048.029.26.097.091.115.058.028.396.068.018-.004c1.197.002.701-.128.957.009l.104-.584.006-.007L23.821 1.998c.39-.596.609-1.397-.375-1.788z"/>
</svg>
