<svg xmlns="http://www.w3.org/2000/svg" width="28" height="56">
    <path fill-rule="evenodd" fill="#646464" d="M25.406 52.934v3.065h-5.302v-3.065H7.883v3.065H2.581v-3.065H0V20.313h27.999v32.621h-2.593zM5.749 25.7c0-1.293-.54-1.784-1.159-1.784-.666 0-1.16.537-1.16 1.784v6.748c0 .664.54 1.156 1.16 1.156.665 0 1.159.056 1.159-1.156V25.7zM0 18.2V0h27.999v18.2H0zm3.43-4.201c0 .663.54 1.155 1.16 1.155.665 0 1.158-.538 1.158-1.155V6.621c0-.663-.539-1.155-1.158-1.155-.666 0-1.16.934-1.16 1.155v7.378z"/>
</svg>
